<svg width="18" height="18" viewBox="0 0 18 18" fill="none"
  xmlns="http://www.w3.org/2000/svg">
  <path fill-rule="evenodd" clip-rule="evenodd" d="M11.25 0.9375H8.208C6.8295 0.9375 5.7375 0.9375 4.88325 1.05225C4.00425 1.17075 3.2925 1.41975 2.73075 1.98075C2.16975 2.5425 1.92075 3.25425 1.80225 4.13325C1.6875 4.98825 1.6875 6.0795 1.6875 7.458V12C1.68737 12.6701 1.92649 13.3182 2.36182 13.8277C2.79715 14.3371 3.40007 14.6744 4.062 14.7787C4.16475 15.3517 4.3635 15.8407 4.761 16.239C5.2125 16.6905 5.781 16.884 6.456 16.9755C7.10625 17.0625 7.9335 17.0625 8.95875 17.0625H11.2913C12.3165 17.0625 13.1438 17.0625 13.794 16.9755C14.469 16.884 15.0375 16.6905 15.489 16.239C15.9405 15.7875 16.134 15.219 16.2255 14.544C16.3125 13.8937 16.3125 13.0665 16.3125 12.0412V8.20875C16.3125 7.1835 16.3125 6.35625 16.2255 5.706C16.134 5.031 15.9405 4.4625 15.489 4.011C15.0908 3.6135 14.6018 3.41475 14.0287 3.312C13.9244 2.65007 13.5871 2.04715 13.0777 1.61182C12.5682 1.17649 11.9201 0.937365 11.25 0.9375ZM12.8475 3.20325C12.7335 2.87025 12.5181 2.58124 12.2317 2.37669C11.9452 2.17214 11.602 2.06229 11.25 2.0625H8.25C6.81975 2.0625 5.80425 2.064 5.0325 2.1675C4.27875 2.26875 3.84375 2.45925 3.5265 2.7765C3.20925 3.09375 3.01875 3.52875 2.9175 4.2825C2.814 5.05425 2.8125 6.06975 2.8125 7.5V12C2.81229 12.352 2.92214 12.6952 3.12669 12.9817C3.33124 13.2681 3.62025 13.4835 3.95325 13.5975C3.9375 13.14 3.9375 12.6225 3.9375 12.0412V8.20875C3.9375 7.1835 3.9375 6.35625 4.02525 5.706C4.11525 5.031 4.31025 4.4625 4.761 4.011C5.2125 3.5595 5.781 3.366 6.456 3.27525C7.10625 3.1875 7.9335 3.1875 8.95875 3.1875H11.2913C11.8725 3.1875 12.39 3.1875 12.8475 3.20325ZM5.556 4.8075C5.76375 4.59975 6.05475 4.46475 6.606 4.3905C7.1715 4.31475 7.923 4.31325 8.99925 4.31325H11.2492C12.3255 4.31325 13.0763 4.31475 13.6432 4.3905C14.1938 4.46475 14.4847 4.6005 14.6925 4.8075C14.9003 5.01525 15.0352 5.30625 15.1095 5.8575C15.1853 6.423 15.1868 7.1745 15.1868 8.25075V12.0007C15.1868 13.077 15.1853 13.8277 15.1095 14.3947C15.0352 14.9452 14.8995 15.2362 14.6925 15.444C14.4847 15.6517 14.1938 15.7867 13.6425 15.861C13.0763 15.9367 12.3255 15.9382 11.2492 15.9382H8.99925C7.923 15.9382 7.1715 15.9367 6.60525 15.861C6.05475 15.7867 5.76375 15.651 5.556 15.444C5.34825 15.2362 5.21325 14.9452 5.139 14.394C5.06325 13.8277 5.06175 13.077 5.06175 12.0007V8.25075C5.06175 7.1745 5.06325 6.423 5.139 5.85675C5.21325 5.30625 5.349 5.01525 5.556 4.8075Z" fill="#A0A0A0"/>
</svg>
