<svg width="13" height="17" viewBox="0 0 13 17" fill="none"
  xmlns="http://www.w3.org/2000/svg">
  <path d="M8.6499 1.37537V2.50037C8.6499 3.56087 8.6499 4.09112 8.9799 4.42037C9.3084 4.75037 9.83865 4.75037 10.8999 4.75037H12.0249" stroke="#4D4D4D" stroke-width="0.8" stroke-linecap="round" stroke-linejoin="round"/>
  <path d="M3.3999 7.75H9.3999M3.3999 10H9.3999M3.3999 12.25H6.5274M0.399902 11.5V5.5C0.399902 3.379 0.399902 2.31775 1.05915 1.65925C1.71765 1 2.7789 1 4.8999 1H8.0289C8.3349 1 8.48865 1 8.62665 1.057C8.7639 1.114 8.87265 1.222 9.0894 1.4395L11.9604 4.3105C12.1779 4.528 12.2859 4.636 12.3429 4.774C12.3999 4.91125 12.3999 5.065 12.3999 5.371V11.5C12.3999 13.621 12.3999 14.6823 11.7407 15.3408C11.0822 16 10.0209 16 7.8999 16H4.8999C2.7789 16 1.71765 16 1.05915 15.3408C0.399902 14.6823 0.399902 13.621 0.399902 11.5Z" stroke="#4D4D4D" stroke-width="0.8" stroke-linecap="round" stroke-linejoin="round"/>
</svg>
  