<svg width="33" height="27" viewBox="0 0 33 27" fill="none"
  xmlns="http://www.w3.org/2000/svg">
  <path d="M0 13.4908C0 12.9538 0.212856 12.4388 0.59174 12.0591C0.970619 11.6793 1.4845 11.466 2.02032 11.466L25.6904 11.466L16.836 3.5261C16.4402 3.16714 16.2023 2.66578 16.1741 2.13156C16.146 1.59733 16.3299 1.07365 16.6858 0.674913C17.0417 0.276174 17.5405 0.0347848 18.0734 0.00347406C18.6063 -0.0278367 19.1298 0.153476 19.5297 0.507806L32.3251 11.9817C32.5374 12.1716 32.7073 12.4043 32.8236 12.6646C32.9399 12.9249 33 13.2069 33 13.4922C33 13.7774 32.9399 14.0594 32.8236 14.3197C32.7073 14.58 32.5374 14.8127 32.3251 15.0027L19.5297 26.4765C19.3323 26.6556 19.1015 26.7938 18.8505 26.8831C18.5996 26.9725 18.3335 27.0113 18.0676 26.9972C17.8017 26.9831 17.5411 26.9165 17.301 26.8011C17.0608 26.6858 16.8458 26.524 16.6683 26.3251C16.4907 26.1262 16.3542 25.894 16.2665 25.642C16.1788 25.39 16.1417 25.1231 16.1573 24.8567C16.1728 24.5903 16.2408 24.3295 16.3573 24.0895C16.4738 23.8495 16.6365 23.635 16.836 23.4582L25.6904 15.5156L2.02032 15.5156C1.4845 15.5156 0.970619 15.3023 0.59174 14.9226C0.212856 14.5428 0 14.0278 0 13.4908Z" fill="black"/>
</svg>
  