<svg width="33" height="26" viewBox="0 0 33 26" fill="none"
  xmlns="http://www.w3.org/2000/svg">
  <path d="M1.16031 11.6926C0.816613 12.0364 0.623535 12.5026 0.623535 12.9888C0.623535 13.4749 0.816613 13.9411 1.16031 14.2849L11.5315 24.6561C11.7006 24.8312 11.9029 24.9709 12.1266 25.0669C12.3502 25.163 12.5908 25.2136 12.8342 25.2157C13.0777 25.2178 13.3191 25.1714 13.5444 25.0793C13.7697 24.9871 13.9744 24.851 14.1465 24.6788C14.3187 24.5067 14.4548 24.302 14.547 24.0767C14.6392 23.8514 14.6855 23.61 14.6834 23.3665C14.6813 23.1231 14.6307 22.8825 14.5347 22.6589C14.4386 22.4352 14.2989 22.2329 14.1238 22.0638L6.88214 14.8221L31.161 14.8221C31.6472 14.8221 32.1135 14.6289 32.4573 14.2851C32.8012 13.9413 32.9943 13.475 32.9943 12.9888C32.9943 12.5025 32.8012 12.0362 32.4573 11.6924C32.1135 11.3486 31.6472 11.1554 31.161 11.1554L6.88214 11.1554L14.1238 3.91376C14.4578 3.56799 14.6426 3.10489 14.6384 2.62419C14.6342 2.1435 14.4414 1.68368 14.1015 1.34376C13.7616 1.00385 13.3017 0.811035 12.821 0.806858C12.3403 0.802681 11.8772 0.987471 11.5315 1.32143L1.16031 11.6926Z" fill="white"/>
</svg>
  