<svg width="33" height="26" viewBox="0 0 33 26" fill="none"
  xmlns="http://www.w3.org/2000/svg">
  <path d="M31.8397 14.3074C32.1834 13.9636 32.3765 13.4974 32.3765 13.0112C32.3765 12.5251 32.1834 12.0589 31.8397 11.7151L21.4685 1.34391C21.2994 1.1688 21.0971 1.02914 20.8734 0.933053C20.6498 0.83697 20.4092 0.786395 20.1658 0.784279C19.9223 0.782164 19.6809 0.828551 19.4556 0.920733C19.2303 1.01291 19.0256 1.14905 18.8535 1.32118C18.6813 1.49332 18.5452 1.69801 18.453 1.92332C18.3608 2.14863 18.3145 2.39005 18.3166 2.63347C18.3187 2.8769 18.3693 3.11747 18.4653 3.34115C18.5614 3.56482 18.7011 3.76712 18.8762 3.93624L26.1179 11.1779L1.83903 11.1779C1.3528 11.1779 0.886482 11.3711 0.542665 11.7149C0.198849 12.0587 0.00569534 12.525 0.00569534 13.0112C0.00569534 13.4975 0.198849 13.9638 0.542665 14.3076C0.886482 14.6514 1.3528 14.8446 1.83903 14.8446L26.1179 14.8446L18.8762 22.0862C18.5422 22.432 18.3574 22.8951 18.3616 23.3758C18.3658 23.8565 18.5586 24.3163 18.8985 24.6562C19.2384 24.9962 19.6983 25.189 20.179 25.1931C20.6597 25.1973 21.1228 25.0125 21.4685 24.6786L31.8397 14.3074Z" fill="white"/>
</svg>
  