<svg width="27" height="27" viewBox="0 0 27 27" fill="none"
  xmlns="http://www.w3.org/2000/svg">
  <path d="M23.2498 12.4166C22.9625 12.4166 22.687 12.5308 22.4838 12.7339C22.2806 12.9371 22.1665 13.2126 22.1665 13.5C22.1794 15.5291 21.4843 17.4992 20.201 19.0709C18.9176 20.6427 17.1263 21.7178 15.1356 22.111C13.1449 22.5041 11.0794 22.1908 9.29489 21.225C7.51033 20.2591 6.11844 18.7012 5.35894 16.8196C4.59944 14.9379 4.51986 12.8503 5.13393 10.9163C5.74799 8.98228 7.01725 7.32294 8.7231 6.22405C10.429 5.12517 12.4646 4.65553 14.4795 4.89603C16.4943 5.13653 18.3622 6.0721 19.7615 7.54163H17.1615C16.8742 7.54163 16.5986 7.65576 16.3955 7.85893C16.1923 8.06209 16.0782 8.33764 16.0782 8.62496C16.0782 8.91228 16.1923 9.18783 16.3955 9.39099C16.5986 9.59415 16.8742 9.70829 17.1615 9.70829H22.069C22.3563 9.70829 22.6319 9.59415 22.835 9.39099C23.0382 9.18783 23.1523 8.91228 23.1523 8.62496V3.74996C23.1523 3.46264 23.0382 3.18709 22.835 2.98393C22.6319 2.78076 22.3563 2.66663 22.069 2.66663C21.7817 2.66663 21.5061 2.78076 21.303 2.98393C21.0998 3.18709 20.9857 3.46264 20.9857 3.74996V5.66746C19.1816 3.94286 16.8373 2.89407 14.3492 2.6984C11.8611 2.50272 9.38169 3.17216 7.33017 4.59354C5.27865 6.01492 3.78083 8.10107 3.0899 10.4993C2.39898 12.8976 2.55732 15.4609 3.53817 17.7559C4.51901 20.0509 6.2622 21.9368 8.47306 23.0949C10.6839 24.253 13.2268 24.6121 15.672 24.1117C18.1171 23.6113 20.3144 22.282 21.8926 20.3484C23.4707 18.4149 24.3328 15.9958 24.3332 13.5C24.3332 13.2126 24.219 12.9371 24.0159 12.7339C23.8127 12.5308 23.5372 12.4166 23.2498 12.4166Z" fill="#434343"/>
</svg>
  