<svg width="68" height="72" viewBox="0 0 68 72" fill="none"
  xmlns="http://www.w3.org/2000/svg">
  <path d="M36.8133 43.6418H17.3805M36.8133 32.5373H28.485M49.3058 35.3134C49.3058 45.7822 49.3058 51.0179 45.8496 54.2688C42.3933 57.5196 36.8327 57.5224 25.7088 57.5224H23.5629C14.5127 57.5224 9.98212 57.5224 6.83955 55.307C5.94522 54.6799 5.14583 53.9272 4.46597 53.0723C2.11182 50.1129 2.11182 45.8544 2.11182 37.3317V30.2664C2.11182 22.0408 2.11182 17.9266 3.41382 14.6424C5.50701 9.35949 9.93214 5.19531 15.5455 3.22427C19.0323 2 23.3991 2 32.1439 2C37.1353 2 39.6338 2 41.6271 2.69958C44.8335 3.82669 47.3626 6.20582 48.5591 9.22346C49.3031 11.1001 49.3031 13.4515 49.3031 18.1515L49.3058 35.3134Z" stroke="#5D5D5D" stroke-width="3" stroke-linecap="round" stroke-linejoin="round"/>
  <path d="M2.11182 29.7612C2.11182 27.3072 3.08666 24.9537 4.8219 23.2185C6.55714 21.4832 8.91063 20.5084 11.3646 20.5084C13.2135 20.5084 15.3928 20.8304 17.1889 20.3501C17.9738 20.1389 18.6893 19.7251 19.2637 19.1502C19.8382 18.5752 20.2514 17.8593 20.462 17.0743C20.9422 15.2782 20.6202 13.0989 20.6202 11.25C20.6209 8.79651 21.5961 6.44374 23.3313 4.7091C25.0664 2.97446 27.4195 2 29.873 2" stroke="#5D5D5D" stroke-width="3" stroke-linecap="round" stroke-linejoin="round"/>
  <path d="M35.1429 49H50.5714C51.9354 49 53.2435 49.5531 54.208 50.5377C55.1724 51.5223 55.7143 52.8576 55.7143 54.25V64.75C55.7143 66.1424 55.1724 67.4777 54.208 68.4623C53.2435 69.4469 51.9354 70 50.5714 70H35.1429C33.7789 70 32.4708 69.4469 31.5063 68.4623C30.5418 67.4777 30 66.1424 30 64.75V54.25C30 52.8576 30.5418 51.5223 31.5063 50.5377C32.4708 49.5531 33.7789 49 35.1429 49ZM55.7143 56.875L61.8857 52.15C62.2677 51.8575 62.722 51.6794 63.1976 51.6356C63.6733 51.5918 64.1514 51.6841 64.5786 51.9021C65.0057 52.1201 65.3649 52.4553 65.616 52.87C65.867 53.2846 66 53.7625 66 54.25V64.75C66 65.2375 65.867 65.7154 65.616 66.13C65.3649 66.5447 65.0057 66.8799 64.5786 67.0979C64.1514 67.3159 63.6733 67.4082 63.1976 67.3644C62.722 67.3206 62.2677 67.1425 61.8857 66.85L55.7143 62.125V56.875Z" stroke="#5D5D5D" stroke-width="3" stroke-linecap="round" stroke-linejoin="round"/>
</svg>
  